<mxfile host="app.diagrams.net" modified="2024-04-25T01:21:42.107Z" agent="Mozilla/5.0 (Windows NT 10.0; Win64; x64) AppleWebKit/537.36 (KHTML, like Gecko) Chrome/124.0.0.0 Safari/537.36" etag="ZBbsIbzck2yCjbDcleJY" version="24.2.9" type="device">
  <diagram name="Page-1" id="i66Yv6L_lWbfXbO-v8Ge">
    <mxGraphModel dx="794" dy="412" grid="0" gridSize="10" guides="1" tooltips="1" connect="1" arrows="1" fold="1" page="1" pageScale="1" pageWidth="827" pageHeight="1169" math="0" shadow="0">
      <root>
        <mxCell id="0" />
        <mxCell id="1" parent="0" />
        <mxCell id="YKWPUCF4qBoGqxhk48tM-17" style="edgeStyle=orthogonalEdgeStyle;rounded=0;orthogonalLoop=1;jettySize=auto;html=1;entryX=0;entryY=0.75;entryDx=0;entryDy=0;" edge="1" parent="1" source="YKWPUCF4qBoGqxhk48tM-1" target="YKWPUCF4qBoGqxhk48tM-2">
          <mxGeometry relative="1" as="geometry">
            <Array as="points">
              <mxPoint x="40" y="220" />
              <mxPoint x="40" y="313" />
            </Array>
          </mxGeometry>
        </mxCell>
        <mxCell id="YKWPUCF4qBoGqxhk48tM-18" value="Input" style="edgeLabel;html=1;align=center;verticalAlign=middle;resizable=0;points=[];" vertex="1" connectable="0" parent="YKWPUCF4qBoGqxhk48tM-17">
          <mxGeometry x="-0.2831" y="2" relative="1" as="geometry">
            <mxPoint y="25" as="offset" />
          </mxGeometry>
        </mxCell>
        <mxCell id="YKWPUCF4qBoGqxhk48tM-1" value="Pollutant Concentration Meteorological Data" style="rounded=1;whiteSpace=wrap;html=1;" vertex="1" parent="1">
          <mxGeometry x="60" y="190" width="140" height="60" as="geometry" />
        </mxCell>
        <mxCell id="YKWPUCF4qBoGqxhk48tM-19" style="edgeStyle=orthogonalEdgeStyle;rounded=0;orthogonalLoop=1;jettySize=auto;html=1;exitX=1;exitY=0.5;exitDx=0;exitDy=0;entryX=0;entryY=0.5;entryDx=0;entryDy=0;" edge="1" parent="1" source="YKWPUCF4qBoGqxhk48tM-2" target="YKWPUCF4qBoGqxhk48tM-3">
          <mxGeometry relative="1" as="geometry" />
        </mxCell>
        <mxCell id="YKWPUCF4qBoGqxhk48tM-2" value="Preprocessing" style="rounded=1;whiteSpace=wrap;html=1;fillColor=#ffcccc;strokeColor=#36393d;" vertex="1" parent="1">
          <mxGeometry x="80" y="290" width="100" height="30" as="geometry" />
        </mxCell>
        <mxCell id="YKWPUCF4qBoGqxhk48tM-3" value="" style="rounded=1;whiteSpace=wrap;html=1;" vertex="1" parent="1">
          <mxGeometry x="220" y="180" width="240" height="250" as="geometry" />
        </mxCell>
        <mxCell id="YKWPUCF4qBoGqxhk48tM-21" style="edgeStyle=orthogonalEdgeStyle;rounded=0;orthogonalLoop=1;jettySize=auto;html=1;exitX=0.5;exitY=0;exitDx=0;exitDy=0;entryX=0.5;entryY=1;entryDx=0;entryDy=0;" edge="1" parent="1" source="YKWPUCF4qBoGqxhk48tM-4" target="YKWPUCF4qBoGqxhk48tM-7">
          <mxGeometry relative="1" as="geometry" />
        </mxCell>
        <mxCell id="YKWPUCF4qBoGqxhk48tM-4" value="Convolutional Layer" style="rounded=1;whiteSpace=wrap;html=1;fillColor=#cce5ff;strokeColor=#36393d;rotation=90;" vertex="1" parent="1">
          <mxGeometry x="150" y="290" width="220" height="30" as="geometry" />
        </mxCell>
        <mxCell id="YKWPUCF4qBoGqxhk48tM-22" style="edgeStyle=orthogonalEdgeStyle;rounded=0;orthogonalLoop=1;jettySize=auto;html=1;exitX=0.5;exitY=0;exitDx=0;exitDy=0;entryX=0.5;entryY=1;entryDx=0;entryDy=0;dashed=1;" edge="1" parent="1" source="YKWPUCF4qBoGqxhk48tM-7" target="YKWPUCF4qBoGqxhk48tM-20">
          <mxGeometry relative="1" as="geometry" />
        </mxCell>
        <mxCell id="YKWPUCF4qBoGqxhk48tM-7" value="Residual Unit" style="rounded=1;whiteSpace=wrap;html=1;fillColor=#cce5ff;strokeColor=#36393d;rotation=90;" vertex="1" parent="1">
          <mxGeometry x="220" y="290" width="220" height="30" as="geometry" />
        </mxCell>
        <mxCell id="YKWPUCF4qBoGqxhk48tM-25" style="edgeStyle=orthogonalEdgeStyle;rounded=0;orthogonalLoop=1;jettySize=auto;html=1;exitX=0.5;exitY=0;exitDx=0;exitDy=0;" edge="1" parent="1" source="YKWPUCF4qBoGqxhk48tM-10" target="YKWPUCF4qBoGqxhk48tM-23">
          <mxGeometry relative="1" as="geometry" />
        </mxCell>
        <mxCell id="YKWPUCF4qBoGqxhk48tM-10" value="LSTM Layer" style="rounded=1;whiteSpace=wrap;html=1;fillColor=#cdeb8b;strokeColor=#36393d;rotation=90;" vertex="1" parent="1">
          <mxGeometry x="390" y="290" width="230" height="30" as="geometry" />
        </mxCell>
        <mxCell id="YKWPUCF4qBoGqxhk48tM-24" style="edgeStyle=orthogonalEdgeStyle;rounded=0;orthogonalLoop=1;jettySize=auto;html=1;exitX=0.5;exitY=0;exitDx=0;exitDy=0;entryX=0.5;entryY=1;entryDx=0;entryDy=0;" edge="1" parent="1" source="YKWPUCF4qBoGqxhk48tM-20" target="YKWPUCF4qBoGqxhk48tM-10">
          <mxGeometry relative="1" as="geometry" />
        </mxCell>
        <mxCell id="YKWPUCF4qBoGqxhk48tM-20" value="Residual Unit" style="rounded=1;whiteSpace=wrap;html=1;fillColor=#cce5ff;strokeColor=#36393d;rotation=90;" vertex="1" parent="1">
          <mxGeometry x="310" y="290" width="220" height="30" as="geometry" />
        </mxCell>
        <mxCell id="YKWPUCF4qBoGqxhk48tM-28" style="edgeStyle=orthogonalEdgeStyle;rounded=0;orthogonalLoop=1;jettySize=auto;html=1;exitX=0.5;exitY=0;exitDx=0;exitDy=0;entryX=0;entryY=0.5;entryDx=0;entryDy=0;" edge="1" parent="1" source="YKWPUCF4qBoGqxhk48tM-23" target="YKWPUCF4qBoGqxhk48tM-27">
          <mxGeometry relative="1" as="geometry" />
        </mxCell>
        <mxCell id="YKWPUCF4qBoGqxhk48tM-29" value="Output" style="edgeLabel;html=1;align=center;verticalAlign=middle;resizable=0;points=[];" vertex="1" connectable="0" parent="YKWPUCF4qBoGqxhk48tM-28">
          <mxGeometry x="0.0095" relative="1" as="geometry">
            <mxPoint as="offset" />
          </mxGeometry>
        </mxCell>
        <mxCell id="YKWPUCF4qBoGqxhk48tM-23" value="FC Layer" style="rounded=1;whiteSpace=wrap;html=1;fillColor=#ffcc99;strokeColor=#36393d;rotation=90;" vertex="1" parent="1">
          <mxGeometry x="450" y="290" width="230" height="30" as="geometry" />
        </mxCell>
        <mxCell id="YKWPUCF4qBoGqxhk48tM-27" value="Pollutant Concentration Prediction at&amp;nbsp;&lt;div&gt;target station&amp;nbsp;&lt;/div&gt;" style="rounded=1;whiteSpace=wrap;html=1;" vertex="1" parent="1">
          <mxGeometry x="650" y="275" width="140" height="60" as="geometry" />
        </mxCell>
        <mxCell id="YKWPUCF4qBoGqxhk48tM-30" value="ResNet" style="text;html=1;align=center;verticalAlign=middle;whiteSpace=wrap;rounded=0;" vertex="1" parent="1">
          <mxGeometry x="310" y="150" width="60" height="30" as="geometry" />
        </mxCell>
      </root>
    </mxGraphModel>
  </diagram>
</mxfile>
